<!-- Generated by IcoMoon.io -->
<svg version="1.1" xmlns="http://www.w3.org/2000/svg" viewBox="0 0 1218 512">
<g id="icomoon-ignore">
</g>
<path d="M55.467 110.8l-20.267-12.266c-12.711-7.734-21.777-15.334-27.2-22.8-5.333-7.555-8-16.222-8-26 0-14.666 5.066-26.578 15.2-35.733 10.223-9.155 23.466-13.733 39.733-13.733 15.556 0 29.822 4.356 42.8 13.066v30.267c-13.422-12.889-27.867-19.334-43.334-19.334-8.711 0-15.867 2.044-21.466 6.133-5.6 4-8.4 9.156-8.4 15.466 0 5.6 2.044 10.844 6.133 15.733s10.711 10 19.866 15.333l20.4 12c22.755 13.511 34.133 30.755 34.133 51.733 0 14.934-5.022 27.066-15.067 36.4-9.956 9.333-22.933 14-38.934 14-18.4 0-35.156-5.644-50.267-16.934v-33.867c14.4 18.222 31.067 27.334 50 27.334 8.355 0 15.289-2.312 20.8-6.934 5.6-4.712 8.4-10.578 8.4-17.601 0-11.378-8.178-22.133-24.534-32.267zM265.733 2.667h26.666v186.267h-26.666v-81.067h-104.668v81.067h-26.666v-186.267h26.666v80.534h104.668v-80.534zM425.067 0c28.8 0 52.755 9.111 71.866 27.334 19.2 18.222 28.799 41.067 28.799 68.534s-9.688 50.222-29.067 68.267c-19.288 17.956-43.644 26.934-73.066 26.934-28.089 0-51.512-8.978-70.267-26.934-18.666-18.045-28-40.622-28-67.734 0-27.823 9.422-50.844 28.266-69.067 18.845-18.222 42.666-27.334 71.467-27.334zM426.133 25.334c-21.334 0-38.888 6.666-52.666 20-13.688 13.334-20.534 30.355-20.534 51.067 0 20.089 6.889 36.799 20.666 50.133 13.779 13.334 31.022 20 51.733 20 20.8 0 38.134-6.799 52-20.399 13.956-13.601 20.934-30.534 20.934-50.8 0-19.733-6.978-36.311-20.934-49.733-13.866-13.511-30.933-20.267-51.2-20.267zM556.933 188.934v-186.534h59.067c17.778 0 31.956 4.8 42.534 14.4s15.866 22.489 15.866 38.666c0 10.845-2.71 20.444-8.133 28.8s-12.845 14.445-22.266 18.267c-9.423 3.734-22.934 5.6-40.534 5.6h-19.734v80.8h-26.801zM611.333 26.134h-27.6v58.267h29.2c10.844 0 19.2-2.534 25.067-7.6 5.866-5.156 8.801-12.489 8.801-22 0-19.111-11.822-28.666-35.467-28.666zM180.799 455.111c0 15.911-5.466 28.622-16.4 38.134-10.844 9.51-26.043 14.267-45.6 14.267h-106.8v-184.8h89.334c11.555 0 21.6 1.111 30.133 3.332 8.622 2.223 15.555 5.289 20.799 9.2 5.245 3.823 9.155 8.356 11.734 13.601 2.577 5.244 3.866 10.978 3.866 17.2 0 6.755-1.333 13.022-4 18.8-2.666 5.689-6 10.401-10 14.134-3.911 3.644-7.867 6.223-11.866 7.733 12.621 4.978 22.222 11.289 28.799 18.934 6.667 7.555 10 17.377 10 29.466zM115.734 375.911c0-8.889-2.933-14.8-8.8-17.733s-15.022-4.4-27.466-4.4h-11.734v44.267h12c12.711 0 21.867-1.466 27.467-4.4 5.689-2.935 8.534-8.845 8.534-17.733zM124.8 452.844c0-15.822-11.467-23.734-34.4-23.734h-22.666v47.334h22.666c22.933 0 34.4-7.866 34.4-23.6zM411.467 507.512h-57.067l-15.067-37.467h-80.267l-15.333 37.467h-57.067l81.734-184.8h61.601l81.467 184.8zM326.533 437.911l-27.067-67.467-27.333 67.467h54.399zM630.399 507.512h-68l-70.666-86.534v86.534h-55.734v-184.8h55.734v82.666l66.933-82.666h60.533l-68.801 86.534 80 98.267zM794 507.512h-139.333v-184.8h137.066v37.067h-81.333v33.867h77.6v37.2h-77.6v39.466h83.601v37.201zM1010.4 507.512h-59.866l-14.534-32.8c-5.333-12-10.133-20.757-14.399-26.267-4.266-5.6-8.444-9.156-12.534-10.666-4-1.601-9.2-2.401-15.6-2.401h-6.265v72.134h-55.734v-184.8h94.801c15.288 0 27.822 3.111 37.599 9.333s16.801 13.777 21.067 22.667c4.356 8.889 6.533 17.333 6.533 25.332 0 9.334-1.822 17.245-5.466 23.734-3.556 6.4-7.334 11.066-11.333 14-4 2.933-8.489 5.733-13.466 8.399 5.955 3.467 10.844 7.601 14.666 12.401 3.912 4.711 9.2 14.311 15.867 28.8l18.667 40.134zM934.666 381.111c0-8.534-2.8-14.488-8.399-17.866s-14.712-5.067-27.334-5.067h-11.733v44.533h11.999c13.601 0 22.89-1.466 27.867-4.4 5.067-3.022 7.599-8.755 7.599-17.2zM1208.002 322.712l-72.401 100.134v84.666h-55.733v-83.601l-73.734-101.2h57.866l42.4 58.134 42.528-58.134h59.073z"></path>
</svg>
